<?xml version="1.0" encoding="UTF-8" standalone="no"?>
<svg xmlns:dc="http://purl.org/dc/elements/1.1/"
  xmlns:cc="http://creativecommons.org/ns#"
  xmlns:rdf="http://www.w3.org/1999/02/22-rdf-syntax-ns#"
  xmlns:svg="http://www.w3.org/2000/svg"
  xmlns="http://www.w3.org/2000/svg"
  xmlns:sodipodi="http://sodipodi.sourceforge.net/DTD/sodipodi-0.dtd"
  xmlns:inkscape="http://www.inkscape.org/namespaces/inkscape" version="1.1" x="0px" y="0px" viewBox="0 0 256 256" xml:space="preserve" id="svg140" sodipodi:docname="star_system.svg" width="256" height="256" inkscape:version="1.0.2 (e86c8708, 2021-01-15)">
  <metadata id="metadata146">
    <rdf:RDF>
      <cc:Work rdf:about="">
        <dc:format>image/svg+xml</dc:format>
        <dc:type rdf:resource="http://purl.org/dc/dcmitype/StillImage" />
        <dc:title></dc:title>
      </cc:Work>
    </rdf:RDF>
  </metadata>
  <defs id="defs144" />
  <sodipodi:namedview pagecolor="#ffffff" bordercolor="#666666" borderopacity="1" objecttolerance="10" gridtolerance="10" guidetolerance="10" inkscape:pageopacity="0" inkscape:pageshadow="2" inkscape:window-width="1680" inkscape:window-height="937" id="namedview142" showgrid="false" inkscape:zoom="1.0765357" inkscape:cx="86.994946" inkscape:cy="220.18239" inkscape:window-x="0" inkscape:window-y="624" inkscape:window-maximized="1" inkscape:current-layer="svg140" />
  <path fill="#ffffff" d="m 225.05576,24.336938 c -8.47527,-8.616578 -20.50468,-13.063844 -35.26805,-13.063844 -35.54144,0 -82.01871,24.737917 -121.387689,64.763312 -16.130346,16.399293 -29.526735,33.632454 -40.189168,51.699464 -1.640374,-0.5559 -3.554144,-1.11181 -5.467914,-1.11181 -9.568849,0 -17.2239285,7.78271 -17.2239285,17.51111 0,6.11499 3.0073527,11.39612 7.6550795,14.45361 -5.4679139,14.45362 -8.2018709,28.35132 -8.2018709,40.30335 0,15.00952 4.3743312,27.51746 12.8495979,36.13404 8.475266,8.61657 20.504677,13.06384 35.268045,13.06384 35.541441,0 82.018708,-24.73792 121.387688,-64.76331 C 231.34386,125.23429 254.3091,53.800076 225.05576,24.336938 Z M 23.016335,132.46109 c 6.288101,0 11.209224,5.00318 11.209224,11.39612 0,6.39295 -4.921123,11.39612 -11.209224,11.39612 -1.91377,0 -3.554144,-0.55591 -4.921122,-1.38977 l 3.007352,-0.83386 c 1.640374,-0.55591 2.460561,-2.22363 2.187166,-3.6134 -0.546792,-1.66773 -1.91377,-2.50159 -3.554144,-2.22364 l -6.288101,1.66773 c -0.820187,-1.66773 -1.366979,-3.33545 -1.366979,-5.00318 l 5.467914,-1.38977 c 1.640374,-0.55591 2.460561,-1.94568 2.187166,-3.6134 -0.546792,-1.66773 -1.91377,-2.50159 -3.554144,-2.22363 l -1.640374,0.5559 c 1.640374,-2.77954 4.647726,-4.72522 8.475266,-4.72522 z M 21.922752,230.5789 C 8.2529675,216.68119 7.1593847,191.38737 18.642004,160.81241 c 1.366978,0.27796 2.733957,0.55591 4.100935,0.55591 9.56885,0 17.223929,-7.78271 17.223929,-17.51111 0,-5.55908 -2.460561,-10.2843 -6.561496,-13.61975 C 43.794408,112.72635 57.190797,95.493195 72.500957,79.927764 110.50296,41.848048 156.43344,17.11013 189.78771,17.11013 c 13.39639,0 23.78543,3.891359 31.16711,11.39612 26.79278,27.239504 4.10094,94.78236 -50.8516,150.65114 -37.72861,38.35767 -83.659083,62.81763 -117.013358,62.81763 -13.396389,0 -23.785426,-3.89136 -31.16711,-11.39612 z M 208.37862,73.256865 c 5.19452,-3.057496 8.74866,-8.616578 8.74866,-15.009523 0,-9.728395 -7.65508,-17.51111 -17.22393,-17.51111 -3.82754,0 -7.65508,1.38977 -10.38903,3.613403 -4.92113,-2.223633 -10.66244,-3.613403 -17.22393,-3.613403 -26.51939,0 -61.24064,18.344972 -90.767375,48.364018 -30.073527,30.57495 -47.297456,66.15308 -47.297456,92.28077 0,11.11817 3.007352,20.56861 9.568849,26.96155 6.288101,6.39295 15.583555,10.00635 26.792779,10.00635 26.519383,0 61.240633,-18.34497 90.767373,-48.36402 31.4405,-31.96472 49.48462,-69.48853 47.02406,-96.728035 z m 0.82019,-20.84656 -4.64773,4.72522 c -0.54679,0.555908 -0.82019,1.389771 -0.82019,2.223633 0,0.833863 0.2734,1.667725 0.82019,2.223633 1.09358,1.111817 3.00735,1.111817 4.10094,0 l 1.91377,-1.945679 c -0.5468,5.837037 -5.19452,10.284303 -10.93583,10.284303 -6.2881,0 -11.20923,-5.003174 -11.20923,-11.396119 0,-5.559083 4.10094,-10.006349 9.29546,-11.118165 l -1.36698,1.38977 c -0.54679,0.555909 -0.82019,1.389771 -0.82019,2.223633 0,0.833863 0.2734,1.667725 0.82019,2.223633 1.09358,1.111817 3.00735,1.111817 4.10093,0 l 4.10094,-4.169312 v -0.277954 c 2.46056,0.555909 3.82754,1.945679 4.64773,3.613404 z M 48.168739,204.17326 C 38.873286,194.72282 37.506307,178.32352 44.3412,157.75492 51.449488,136.35245 66.212856,113.56021 85.897346,93.547516 113.78371,64.918241 147.68477,46.851222 172.29039,46.851222 c 4.92112,0 9.02206,1.111817 13.12299,2.501588 -1.64037,2.501587 -2.46056,5.559082 -2.46056,8.894532 0,9.728394 7.65508,17.51111 17.22393,17.51111 0.82019,0 1.91377,0 2.73396,-0.277954 1.36697,25.015872 -16.40375,60.871952 -45.38369,90.335092 -28.43315,28.35132 -62.33422,46.69629 -86.939833,46.41834 -9.56885,0 -17.223929,-2.77954 -22.418448,-8.06067 z M 148.50496,157.19901 c 29.25334,-29.74109 40.18917,-65.319219 25.15241,-80.606696 -4.37434,-4.447266 -10.93583,-6.948853 -18.59091,-6.948853 -17.77072,0 -41.28275,12.229982 -60.967243,32.520629 -20.231282,20.56861 -31.713901,43.91676 -31.713901,61.70582 0,7.78272 2.187165,14.17566 6.834892,18.90088 2.460562,2.50159 5.74131,4.16931 9.295454,5.55908 0.820187,6.39295 6.014705,11.67408 12.576202,11.67408 7.108288,0 12.849596,-5.83704 12.849596,-13.06385 v 0 c 14.76337,-5.28113 30.89372,-15.56543 44.5635,-29.74109 z M 98.473548,106.33341 C 116.79106,87.710479 139.20951,75.758452 155.33985,75.758452 c 6.01471,0 10.93583,1.667724 14.21658,5.003174 12.5762,12.507936 1.09358,45.862434 -25.1524,72.268074 -13.123,13.3418 -28.15976,23.07019 -41.82955,27.79541 -2.18716,-4.16931 -6.288097,-7.22681 -11.482616,-7.22681 -5.467914,0 -10.115641,3.61341 -12.029411,8.61658 -2.187165,-0.83386 -4.374331,-1.94568 -5.741309,-3.6134 -12.302807,-12.78589 -0.820187,-45.86243 25.152404,-72.26807 z M 91.091864,193.611 c -0.273395,0 -0.546791,0 -0.820187,-0.27795 l 1.640374,-2.77954 c 0.820187,-1.38977 0.273396,-3.33545 -1.093582,-4.16932 -1.366979,-0.83386 -3.280749,-0.27795 -4.100936,1.11182 l -1.366978,2.50159 c -0.820188,-1.11182 -1.366979,-2.50159 -1.366979,-3.89136 0,-3.89136 3.007353,-6.94885 6.834893,-6.94885 3.827539,0 7.108288,3.05749 7.108288,6.94885 0,3.89136 -3.007353,7.50476 -6.834893,7.50476 z m 33.354276,-34.74426 v -5.28113 c 2.18717,-0.27796 4.64773,-0.83386 6.5615,-1.66773 l 2.46056,4.44727 c 0.82018,1.38977 2.73395,1.94568 4.10093,1.11182 1.36698,-0.83387 1.91377,-2.77955 1.09359,-4.16932 l -2.73396,-4.72522 c 1.91377,-1.38977 3.55414,-3.05749 4.64773,-5.00317 l 4.64772,2.77954 c 1.36698,0.83386 3.28075,0.27795 4.10094,-1.11182 0.82019,-1.38977 0.27339,-3.33545 -1.09358,-4.16931 l -4.64773,-2.77954 c 0.82019,-1.94568 1.36698,-4.44727 1.64037,-6.6709 h 5.46792 c 1.64037,0 3.00735,-1.38977 3.00735,-3.05749 0,-1.66773 -1.36698,-3.0575 -3.00735,-3.0575 h -5.46792 c -0.27339,-2.22363 -0.82018,-4.44727 -1.64037,-6.39294 l 4.64773,-2.77955 c 1.36697,-0.83386 1.91377,-2.77954 1.09358,-4.16931 -0.82019,-1.38977 -2.73396,-1.94568 -4.10094,-1.11181 l -4.64772,2.77954 c -1.36698,-1.94568 -3.00736,-3.61341 -4.64773,-5.00318 l 2.73396,-4.72522 c 0.82018,-0.55591 0.27339,-2.50158 -1.09359,-3.33545 -1.36698,-0.833859 -3.28075,-0.27795 -4.10093,1.11182 l -2.46056,4.44727 c -2.18717,-0.83387 -4.37433,-1.38977 -6.5615,-1.66773 v -5.281127 c 0,-1.667725 -1.36698,-3.057496 -3.00735,-3.057496 -1.64038,0 -3.00736,1.389771 -3.00736,3.057496 v 5.281127 c -2.18716,0.27796 -4.64772,0.83386 -6.56149,1.66773 l -2.46056,-4.44727 c -0.82019,-1.38977 -2.73396,-1.945679 -4.10094,-1.11182 -0.82019,0.55591 -1.36698,1.66773 -1.36698,2.50159 0,0.55591 0,1.11182 0.2734,1.38977 l 2.73395,4.72522 c -1.91377,1.38977 -3.55414,3.0575 -4.64772,5.00318 l -4.647729,-2.77955 c -1.366978,-0.83386 -3.280748,-0.27795 -4.100935,1.11182 -0.273396,0.55591 -0.273396,1.11182 -0.273396,1.38977 0,1.11182 0.546791,1.94568 1.366978,2.50159 l 4.647727,2.77954 c -0.820187,1.94568 -1.366978,4.16931 -1.640374,6.39294 h -5.467914 c -1.640374,0 -3.007353,1.38978 -3.007353,3.0575 0,1.66772 1.366979,3.0575 3.007353,3.0575 h 5.467914 c 0.273396,2.22363 0.820187,4.44726 1.640374,6.67089 l -4.647727,2.77955 c -0.820187,0.5559 -1.366978,1.66772 -1.366978,2.50158 0,0.55591 0,1.11182 0.273396,1.38977 0.820187,1.38977 2.733957,1.94568 4.100935,1.11182 l 4.647729,-2.77954 c 1.36698,1.94568 3.00735,3.6134 4.64772,5.00317 l -2.73395,4.72522 c -0.2734,0.55591 -0.2734,1.11182 -0.2734,1.38977 0,1.11182 0.54679,1.94568 1.36698,2.50159 1.36698,0.83386 3.28075,0.27796 4.10094,-1.11182 l 2.46056,-4.44726 c 2.18716,0.83386 4.37433,1.38977 6.56149,1.66772 v 5.28113 c 0,1.66773 1.36698,3.0575 3.00736,3.0575 1.64037,0 3.00735,-1.11182 3.00735,-2.77954 z m -21.32486,-29.7411 c 0,-10.2843 8.20187,-18.34497 18.31751,-18.34497 10.11564,0 18.31751,8.33863 18.31751,18.34497 0,10.28431 -8.20187,18.34498 -18.31751,18.34498 -10.11564,0.27795 -18.31751,-8.06067 -18.31751,-18.34498 z M 68.400021,24.892846 c -1.093583,0.277954 -2.460561,0 -3.280748,-1.111816 l -1.640374,-2.223633 -2.460562,0.833862 c -1.093583,0.277954 -2.460561,0 -3.280748,-1.111816 -0.820187,-1.111817 -0.820187,-2.501587 0,-3.613404 l 1.640374,-2.223633 -1.640374,-2.223633 c -0.546792,-0.555909 -0.820187,-1.111817 -0.820187,-1.667725 0,-0.555908 0.273395,-1.111817 0.546791,-1.6677249 0.820187,-1.1118165 2.187166,-1.3897706 3.280749,-1.1118165 l 2.460561,0.8338624 1.91377,-2.5015871 c 0.820187,-1.1118165 2.187165,-1.3897707 3.280748,-1.1118165 1.093583,0.5559082 2.187166,1.6677247 2.187166,3.0574954 v 2.7795412 l 2.460561,0.833862 c 2.460561,0.833863 2.460561,5.003175 0,5.837037 l -2.460561,0.833863 v 2.779541 c 0,1.111817 -1.093583,2.223633 -2.187166,2.779541 z m 98.422449,225.142844 -1.64037,-2.22363 -2.46056,0.83386 c -1.09359,0.27795 -2.46056,0 -3.28075,-1.11182 -0.82019,-1.11181 -0.82019,-2.50158 0,-3.6134 l 1.36698,-2.22363 -1.64038,-2.22364 c -0.27339,-0.55591 -0.54679,-1.11181 -0.54679,-1.66772 0,-0.55591 0.2734,-1.11182 0.54679,-1.66773 0.82019,-1.11181 2.18717,-1.38977 3.28075,-1.11181 l 2.46056,0.83386 1.64038,-2.22363 c 0.82018,-1.11182 2.18716,-1.38977 3.28075,-1.11182 1.09358,0.27795 1.91377,1.66772 1.91377,2.77954 v 2.77954 l 2.46056,0.83386 c 1.09358,0.27796 1.91377,1.66773 1.91377,2.77955 0,1.38977 -0.82019,2.50158 -1.91377,2.77954 l -2.46056,0.83386 v 2.77954 c 0,1.38977 -0.82019,2.50159 -1.91377,2.77954 -1.09359,0.55591 -2.46057,0 -3.00736,-0.83386 z M 34.77235,70.755277 v -9.45044 l 8.748662,-2.779541 c 2.460562,-0.833863 2.460562,-5.003175 0,-5.837037 L 34.77235,49.908718 v -9.450441 c 0,-1.38977 -0.820187,-2.501587 -1.91377,-2.779541 -1.093583,-0.277954 -2.460561,0 -3.280748,1.111817 l -5.467914,7.504761 -8.748662,-2.779541 c -1.093583,-0.277954 -2.460562,0 -3.280749,1.111816 -0.820187,1.111817 -0.820187,2.501588 0,3.613404 l 5.467914,7.504761 -5.467914,7.504762 c -0.273395,0.555908 -0.546791,1.111816 -0.546791,1.667725 0,0.555908 0.273396,1.111816 0.546791,1.667724 0.820187,1.111817 2.187166,1.389771 3.280749,1.111817 l 8.748662,-2.779541 5.467914,7.504761 c 0.820187,1.111817 2.187165,1.389771 3.280748,1.111817 1.093583,-0.277954 1.91377,-1.667725 1.91377,-2.779542 z M 27.664062,59.637112 c -0.820187,-1.111816 -2.187166,-1.38977 -3.280748,-1.111816 l -2.187166,0.833862 1.366978,-1.945679 c 0.273396,-0.555908 0.546792,-1.111816 0.546792,-1.667725 0,-0.555908 -0.273396,-1.111816 -0.546792,-1.667724 l -1.366978,-1.945679 2.187166,0.833862 c 1.093582,0.277954 2.460561,0 3.280748,-1.111816 l 1.366978,-1.945679 v 2.223633 c 0,1.38977 0.820188,2.501587 1.91377,2.779541 l 2.187166,0.833862 -2.187166,0.833863 c -1.093582,0.277954 -1.91377,1.667725 -1.91377,2.779541 v 2.223633 z m 192.197178,124.523448 -8.74866,-2.77954 c -1.09359,-0.27795 -2.46056,0 -3.28075,1.11182 -0.54679,0.27795 -0.54679,1.11181 -0.54679,1.66772 0,0.55591 0.27339,1.11182 0.54679,1.66773 l 5.46791,7.50476 -5.46791,7.50476 c -0.82019,1.11182 -0.82019,2.50159 0,3.6134 0.82019,1.11182 2.18716,1.38977 3.28075,1.11182 l 8.74866,-2.77954 5.46791,7.50476 c 0.82019,1.11182 2.18717,1.38977 3.28075,1.11182 1.09358,-0.27796 1.91377,-1.66773 1.91377,-2.77955 v -9.45044 l 8.74866,-2.77954 c 2.46056,-0.83386 2.46056,-5.00317 0,-5.83703 l -8.74866,-2.77954 v -9.45045 c 0,-1.38977 -0.82019,-2.50158 -1.91377,-2.77954 -1.09358,-0.27795 -2.46056,0 -3.28075,1.11182 z m 4.64773,5.83704 c 0,1.38977 0.82018,2.50159 1.91377,2.77954 l 2.18716,0.83386 -2.18716,0.83386 c -1.09359,0.27796 -1.91377,1.66773 -1.91377,2.77955 v 2.22363 l -1.36698,-1.94568 c -0.82019,-1.11182 -2.18717,-1.38977 -3.28075,-1.11182 l -2.18717,0.55591 1.64038,-1.66772 c 0.82018,-1.11182 0.82018,-2.50159 0,-3.61341 l -1.36698,-1.94568 2.18716,0.55591 c 1.09359,0.27796 2.46057,0 3.28075,-1.11181 l 1.36698,-1.94568 z m -18.86431,53.36719 c 0,2.50159 2.18717,4.72522 4.64773,4.72522 2.46056,0 4.64773,-2.22363 4.64773,-4.72522 0,-2.50159 -2.18717,-4.72522 -4.64773,-4.72522 -2.46056,0 -4.64773,2.22363 -4.64773,4.72522 z m 5.74131,0 c 0,0.83386 -0.54679,1.38977 -1.36698,1.38977 -1.36697,0 -1.36697,-2.77954 0,-2.77954 0.82019,0 1.36698,0.55591 1.36698,1.38977 z M 92.732238,39.346461 c 2.460562,0 4.647727,-2.223633 4.647727,-4.72522 0,-2.501587 -2.187165,-4.72522 -4.647727,-4.72522 -2.460561,0 -4.647726,2.223633 -4.647726,4.72522 0,2.501587 2.187165,4.72522 4.647726,4.72522 z m 0,-6.114991 c 0.820188,0 1.366979,0.555908 1.366979,1.389771 0,0.833862 -0.546791,1.38977 -1.366979,1.38977 -1.640374,0 -1.640374,-2.779541 0,-2.779541 z m 149.000652,131.4723 c 0,2.50159 2.18717,4.72522 4.64773,4.72522 2.46056,0 4.64773,-2.22363 4.64773,-4.72522 0,-2.50158 -2.18717,-4.72522 -4.64773,-4.72522 -2.46056,0 -4.64773,2.22364 -4.64773,4.72522 z m 6.01471,0 c 0,0.83386 -0.54679,1.38977 -1.36698,1.38977 -1.36698,0 -1.36698,-2.77954 0,-2.77954 0.82019,0 1.36698,0.55591 1.36698,1.38977 z" id="path134" style="stroke-width:2.75665" />
</svg>
